<?xml version="1.0" encoding="UTF-8"?>
<!DOCTYPE svg PUBLIC "-//W3C//DTD SVG 1.1//EN" "http://www.w3.org/Graphics/SVG/1.1/DTD/svg11.dtd">
<!-- Creator: CorelDRAW 2018 (64-Bit) -->
<svg xmlns="http://www.w3.org/2000/svg" xml:space="preserve" width="11.2008in" height="8.26772in" version="1.1" style="shape-rendering:geometricPrecision; text-rendering:geometricPrecision; image-rendering:optimizeQuality; fill-rule:evenodd; clip-rule:evenodd"
viewBox="0 0 11200.79 8267.72"
 xmlns:xlink="http://www.w3.org/1999/xlink">
 <defs>
  <style type="text/css">
   <![CDATA[
    .str0 {stroke:#6CD9C1;stroke-width:55.56;stroke-miterlimit:2.61313}
    .str1 {stroke:#6CD9C1;stroke-width:27.78;stroke-miterlimit:2.61313}
    .str2 {stroke:#6CD9C1;stroke-width:6.94;stroke-miterlimit:2.61313}
    .fil0 {fill:none}
    .fil1 {fill:#092A52}
    .fil2 {fill:#6CD9C1}
   ]]>
  </style>
 </defs>
 <g id="Layer_x0020_1">
  <metadata id="CorelCorpID_0Corel-Layer"/>
  <circle class="fil0" cx="2166.72" cy="2671.2" r="1395.83"/>
  <g id="_2348403821104">
   <polygon class="fil1 str0" points="2166.72,1339.05 2743.56,1672.09 3320.4,2005.13 3320.4,2671.2 3320.4,3337.28 2743.56,3670.31 2166.72,4003.36 1589.89,3670.31 1013.05,3337.28 1013.05,2671.2 1013.05,2005.13 1589.89,1672.09 "/>
   <rect class="fil0 str1" x="1492.12" y="2067.52" width="1349.22" height="818.8" rx="12.83" ry="7.79"/>
   <path class="fil2" d="M1798.22 3204.45c0,-7.11 13.3,-25.28 19.86,-25.28l697.02 0c6.56,0 19.86,18.17 19.86,25.28 0,8.2 -10.22,16.79 -12.64,23.47l-711.46 0c-2.42,-6.69 -12.64,-15.27 -12.64,-23.47zm724.12 70.42l-544.48 0c-48.13,-0.02 -91.05,-1.81 -138.11,-1.8 -27.23,0 -42.22,0.59 -58.6,-11.82 -10.5,-7.95 -26.27,-27.15 -26.27,-44.16 0,-28.17 -3.22,-35.88 13.37,-57.05 18.26,-23.29 34.57,-25.28 60.72,-25.96 9.09,-0.23 9.98,-1.81 19.74,-1.93l25.35 0.07 0 -151.69c0,-4.16 1.25,-5.42 5.41,-5.42l574.23 0c4.16,0 5.42,1.26 5.42,5.42l0 151.69 45.09 1.86c20.78,0.57 24,-0.02 38.26,6.88 41.01,19.83 48.08,82.96 17.39,113.66 -5.09,5.09 -28.93,20.22 -37.51,20.25zm-599.53 -252.8l487.56 0 0 110.15 -487.56 0 0 -110.15z"/>
   <path class="fil2" d="M1882.97 2586.06c-46.38,0 -82.09,-18.99 -104.17,-60.15 -22.6,-42.13 -12.2,-89.83 19.3,-125.84 11.61,-13.27 44.77,-32.5 63.2,-32.5 28.41,0 37.99,-2 65.67,11.98 7.99,4.04 8.11,5.44 14.8,10.48 39.99,30.16 56.92,89.36 34.07,130 -5.02,8.93 -2.54,7.7 -8.99,16.3 -4.37,5.83 -7.17,10.06 -12.06,15.02 -18.56,18.78 -44.56,34.72 -71.81,34.72zm-45.15 -348.51c0,24.54 -7.22,45.43 -7.22,70.42 -7.56,5.07 -35.48,16.25 -41.53,16.25 -0.7,0 -26.49,-21.24 -30.17,-23.99 -39.72,-29.64 -24.74,-32.15 -57.85,0.97 -7.46,7.46 -20.5,18.83 -25.73,26.64 7.11,10.61 15.25,20.58 23.89,30.27l24.86 31.12c-6.41,7.37 -9.19,12.81 -13.11,23.01 -4.37,11.38 -4.57,17.19 -16.48,19.64 -21.29,4.38 -46.15,3.26 -66.12,7.91l0 74.04 66.19 6.04c7.27,1.21 7.97,1.51 11.01,7.04l16.7 37.48 -22.76 29.61c-6.33,6.75 -20.3,22.84 -22.39,31.78 9.52,14.2 47.85,48.76 50.56,48.76 8,0 8.56,-4.21 20.9,-13.41 49.29,-36.77 29.72,-36.89 61.66,-25.8 23.18,8.04 16.81,-2.24 24.51,44.1 8.27,49.71 -17.37,43.87 66.29,43.87 6.22,0 6.99,-1.33 12.64,-1.8 0,-8.28 1.63,-19.28 2.86,-27.84 5.06,-35.17 -3.39,-51.59 19.26,-56.57 31.13,-6.86 13.33,-20.16 49.54,9.14 31.97,25.87 32.98,33.13 44.04,24.85 0.3,-0.22 0.69,-0.59 0.98,-0.83l20.02 -17.9c8.52,-7.13 19.83,-19.43 25.81,-28.36 -3.99,-7.55 -33.4,-41.87 -41.22,-50.93 -7.38,-8.55 -5.26,-10.98 0.07,-20.91 20.87,-38.83 2.2,-30.32 59.11,-34.8 8.73,-0.69 19.72,-3.52 28.98,-3.52l0 -74.04c-27,-6.29 -21.99,-2.03 -38.74,-4.59 -50.79,-7.76 -31.14,-0.26 -42.84,-20.36l-11.49 -27.35c0.33,-3.37 37.84,-48.02 41.42,-51.72 0.26,-0.27 0.67,-0.61 0.92,-0.89l1.7 -1.91c5.63,-7.19 -9.52,-17.64 -21.84,-29.96 -30.66,-30.66 -28.97,-28.2 -46.91,-13.51 -5.44,4.45 -8.43,7.05 -13.61,11.67 -32.04,28.64 -30.2,23.92 -41.69,19.19 -30.12,-12.42 -28.67,-1.12 -32.86,-55.62 -0.77,-9.97 -3.51,-21.72 -3.51,-32.6 -8.17,-0.19 -7.18,-1.81 -16.25,-1.81l-59.59 0 0 7.22z"/>
   <path class="fil2" d="M1801.71 2470.49c0,33.16 12.27,58.96 39.66,72.3 27.2,13.26 65.97,9.16 89.04,-14.02 21.27,-21.38 24.67,-62.49 13.62,-83.21 -7.82,-14.66 -7.03,-16.09 -20.55,-28.21l-14.54 -8.93c-18.93,-8.92 -46.86,-9.48 -66.94,1.24 -18.06,9.65 -19.59,14.17 -28.67,25.51 -6.83,8.53 -11.62,24.33 -11.62,35.32z"/>
   <rect class="fil2 str2" x="2257.53" y="2590.46" width="447.27" height="45.96"/>
   <rect class="fil2 str2" x="2254.95" y="2500.34" width="447.27" height="45.96"/>
   <rect class="fil2 str2" x="2254.95" y="2410.22" width="447.27" height="45.96"/>
   <rect class="fil2 str2" x="2254.95" y="2318.81" width="447.27" height="45.96"/>
  </g>
 </g>
</svg>
