<?xml version="1.0" encoding="UTF-8"?>
<!DOCTYPE svg PUBLIC "-//W3C//DTD SVG 1.1//EN" "http://www.w3.org/Graphics/SVG/1.1/DTD/svg11.dtd">
<!-- Creator: CorelDRAW 2018 (64-Bit) -->
<svg xmlns="http://www.w3.org/2000/svg" xml:space="preserve" width="0.499992in" height="0.499992in" version="1.1" style="shape-rendering:geometricPrecision; text-rendering:geometricPrecision; image-rendering:optimizeQuality; fill-rule:evenodd; clip-rule:evenodd"
viewBox="0 0 499.99 499.99"
 xmlns:xlink="http://www.w3.org/1999/xlink">
 <defs>
  <style type="text/css">
   <![CDATA[
    .str0 {stroke:#6CD9C1;stroke-width:6.94;stroke-miterlimit:2.61313}
    .fil0 {fill:none}
    .fil1 {fill:#092A52}
    .fil2 {fill:#6CD9C1}
   ]]>
  </style>
 </defs>
 <g id="Layer_x0020_1">
  <metadata id="CorelCorpID_0Corel-Layer"/>
  <rect class="fil0" x="-0.12" y="-0.44" width="498.71" height="502.61"/>
  <g id="_1689101880752">
   <polygon class="fil1 str0" points="249.24,4.36 355.98,65.99 462.72,127.61 462.72,250.87 462.72,374.11 355.98,435.74 249.24,497.37 142.51,435.74 35.77,374.11 35.77,250.87 35.77,127.61 142.51,65.99 "/>
   <rect class="fil0 str0" x="124.42" y="139.16" width="249.66" height="151.51" rx="2.37" ry="1.44"/>
   <path class="fil2" d="M181.06 349.54c0,-1.31 2.46,-4.68 3.68,-4.68l128.98 0c1.21,0 3.67,3.36 3.67,4.68 0,1.52 -1.89,3.11 -2.34,4.35l-131.65 0c-0.44,-1.24 -2.34,-2.83 -2.34,-4.35zm133.99 13.03l-100.75 0c-8.91,-0 -16.85,-0.33 -25.56,-0.33 -5.04,0 -7.81,0.11 -10.84,-2.19 -1.94,-1.47 -4.86,-5.02 -4.86,-8.17 0,-5.21 -0.59,-6.64 2.48,-10.56 3.38,-4.31 6.4,-4.68 11.23,-4.8 1.69,-0.04 1.85,-0.33 3.65,-0.36l4.69 0.02 0 -28.07c0,-0.77 0.23,-1 1,-1l106.26 0c0.77,0 1,0.23 1,1l0 28.07 8.34 0.34c3.84,0.11 4.44,-0 7.08,1.28 7.59,3.67 8.9,15.35 3.22,21.03 -0.94,0.94 -5.35,3.74 -6.94,3.74zm-110.94 -46.78l90.22 0 0 20.39 -90.22 0 0 -20.39z"/>
   <path class="fil2" d="M196.74 235.11c-8.58,0 -15.19,-3.51 -19.28,-11.13 -4.18,-7.8 -2.26,-16.62 3.57,-23.29 2.15,-2.46 8.29,-6.01 11.7,-6.01 5.26,0 7.03,-0.37 12.15,2.22 1.48,0.74 1.5,1 2.74,1.94 7.4,5.58 10.53,16.54 6.3,24.06 -0.93,1.65 -0.47,1.43 -1.66,3.02 -0.81,1.08 -1.33,1.86 -2.23,2.78 -3.43,3.48 -8.24,6.43 -13.29,6.43zm-8.35 -64.49c0,4.54 -1.34,8.41 -1.34,13.03 -1.4,0.94 -6.56,3.01 -7.69,3.01 -0.13,0 -4.9,-3.93 -5.58,-4.44 -7.35,-5.48 -4.58,-5.95 -10.7,0.18 -1.38,1.38 -3.8,3.48 -4.76,4.93 1.32,1.96 2.82,3.81 4.42,5.6l4.6 5.76c-1.19,1.37 -1.7,2.37 -2.43,4.26 -0.81,2.11 -0.85,3.18 -3.05,3.63 -3.94,0.81 -8.54,0.61 -12.23,1.46l0 13.7 12.25 1.12c1.34,0.22 1.47,0.28 2.04,1.3l3.09 6.94 -4.21 5.48c-1.17,1.25 -3.76,4.23 -4.15,5.88 1.76,2.63 8.85,9.02 9.36,9.02 1.48,0 1.58,-0.78 3.87,-2.48 9.12,-6.8 5.5,-6.83 11.41,-4.77 4.29,1.49 3.11,-0.41 4.54,8.16 1.53,9.2 -3.22,8.12 12.26,8.12 1.15,0 1.3,-0.25 2.34,-0.33 0,-1.53 0.3,-3.57 0.53,-5.15 0.93,-6.51 -0.63,-9.55 3.56,-10.47 5.76,-1.27 2.46,-3.73 9.17,1.69 5.92,4.79 6.11,6.13 8.15,4.6 0.06,-0.04 0.13,-0.11 0.18,-0.15l3.7 -3.31c1.58,-1.32 3.67,-3.59 4.78,-5.25 -0.74,-1.4 -6.18,-7.75 -7.63,-9.42 -1.37,-1.58 -0.97,-2.04 0.02,-3.87 3.86,-7.19 0.41,-5.61 10.94,-6.44 1.61,-0.13 3.65,-0.65 5.36,-0.65l0 -13.7c-5,-1.16 -4.07,-0.37 -7.17,-0.85 -9.4,-1.44 -5.76,-0.05 -7.93,-3.77l-2.13 -5.06c0.06,-0.62 7,-8.89 7.67,-9.57 0.05,-0.05 0.13,-0.11 0.17,-0.16l0.31 -0.35c1.04,-1.33 -1.76,-3.26 -4.04,-5.54 -5.67,-5.68 -5.36,-5.22 -8.68,-2.5 -1.01,0.82 -1.56,1.3 -2.52,2.16 -5.93,5.3 -5.59,4.43 -7.71,3.55 -5.57,-2.3 -5.3,-0.21 -6.08,-10.29 -0.14,-1.85 -0.65,-4.02 -0.65,-6.04 -1.51,-0.03 -1.33,-0.33 -3.01,-0.33l-11.02 0 0 1.33z"/>
   <path class="fil2" d="M181.7 213.72c0,6.13 2.27,10.91 7.34,13.38 5.04,2.45 12.21,1.7 16.48,-2.59 3.94,-3.96 4.57,-11.56 2.52,-15.4 -1.44,-2.71 -1.3,-2.98 -3.8,-5.22l-2.69 -1.65c-3.5,-1.65 -8.67,-1.76 -12.39,0.23 -3.34,1.78 -3.63,2.62 -5.3,4.72 -1.26,1.58 -2.15,4.5 -2.15,6.54z"/>
   <rect class="fil2" x="266.05" y="235.92" width="82.76" height="8.51"/>
   <rect class="fil2" x="265.57" y="219.25" width="82.76" height="8.51"/>
   <rect class="fil2" x="265.57" y="202.57" width="82.76" height="8.51"/>
   <rect class="fil2" x="265.57" y="185.66" width="82.76" height="8.51"/>
  </g>
 </g>
</svg>
